Coordinates
version=1
nRows=26
nColumns=24
inDegrees=yes

Units are S.I. units (second, meters, Newtons, ...)
Angles are in degrees.

endheader
time	pelvis_tilt	pelvis_list	pelvis_rotation	pelvis_tx	pelvis_ty	pelvis_tz	hip_flexion_r	hip_adduction_r	hip_rotation_r	knee_angle_r	ankle_angle_r	subtalar_angle_r	mtp_angle_r	hip_flexion_l	hip_adduction_l	hip_rotation_l	knee_angle_l	ankle_angle_l	subtalar_angle_l	mtp_angle_l	lumbar_extension	lumbar_bending	lumbar_rotation
      1.36683333	      1.68898075	      9.24297511	     -3.67101511	      0.35562455	      1.02100378	      0.26719343	     12.37945557	     -9.02464131	      2.11004170	    -65.30525685	      5.00220269	    -16.36443748	     -0.75273713	      5.62966436	     13.07578418	      0.92243320	    -10.10853313	     -0.67765301	    -17.73683919	      6.84912413	     -4.13980057	    -11.16387621	      6.84156592
      1.37100000	      1.67264125	      9.10987550	     -3.49768760	      0.36074971	      1.02170730	      0.26684000	     12.87331740	     -8.83630756	      1.97653998	    -64.81299855	      5.22802244	    -16.31765458	     -0.78008114	      5.11823535	     12.98955415	      1.22835177	     -9.77755134	     -0.61500067	    -17.79418437	      6.79524037	     -4.20315096	    -11.00224778	      6.54091018
      1.37516667	      1.66746044	      8.99593201	     -3.33849754	      0.36589472	      1.02237895	      0.26653280	     13.35002107	     -8.67397642	      1.84535485	    -64.28105842	      5.45000039	    -16.29549934	     -0.80431669	      4.59205756	     12.91482823	      1.49119575	     -9.43122073	     -0.56844128	    -17.83253523	      6.74467939	     -4.25087017	    -10.87363539	      6.27402900
      1.37933333	      1.68906162	      8.90573506	     -3.18956609	      0.37101772	      1.02304208	      0.26623139	     13.79498564	     -8.54565304	      1.72283380	    -63.70972786	      5.62325067	    -16.25781555	     -0.85263864	      4.01935474	     12.87205519	      1.83013064	     -9.04354309	     -0.52455018	    -18.00746149	      6.64471925	     -4.33758886	    -10.78653318	      5.84848430
      1.38350000	      1.67568465	      8.79455143	     -3.02655964	      0.37614591	      1.02363018	      0.26593337	     14.25644738	     -8.39237458	      1.58867950	    -63.08489597	      5.81241294	    -16.24095395	     -0.90046705	      3.50203111	     12.79345432	      2.11213043	     -8.69384378	     -0.47809494	    -18.07979431	      6.54256977	     -4.38013908	    -10.66529569	      5.57778885
      1.38766667	      1.68391396	      8.68921166	     -2.86497869	      0.38125635	      1.02420455	      0.26564580	     14.68349140	     -8.25277575	      1.44768377	    -62.41808280	      5.99680889	    -16.22324815	     -0.94899213	      2.96295434	     12.71703297	      2.38676317	     -8.34116915	     -0.43307705	    -18.13495867	      6.43796761	     -4.45069378	    -10.55068937	      5.29451356
      1.39183333	      1.63548087	      8.57564193	     -2.70222269	      0.38638536	      1.02467274	      0.26537921	     15.15752731	     -8.09714545	      1.31731148	    -61.70576738	      6.18620228	    -16.22156803	     -0.96793168	      2.50339281	     12.61820860	      2.59180593	     -8.02525538	     -0.38066927	    -18.08561412	      6.39638684	     -4.44829534	    -10.41786581	      5.15363929
      1.39600000	      1.66890055	      8.48534946	     -2.54387235	      0.39147371	      1.02519737	      0.26510853	     15.53515981	     -7.98299835	      1.17615366	    -60.95813436	      6.32910962	    -16.23853711	     -1.02845919	      1.92757882	     12.55536557	      2.91509115	     -7.64611531	     -0.34991363	    -18.22696674	      6.27246860	     -4.55358235	    -10.33865642	      4.72844932
      1.40016667	      1.66683322	      8.38574177	     -2.38512201	      0.39657993	      1.02565055	      0.26484740	     15.93463689	     -7.85829826	      1.03554090	    -60.16330007	      6.46040123	    -16.25312196	     -1.08430238	      1.40568612	     12.47179996	      3.17929257	     -7.29962337	     -0.28981851	    -18.28321072	      6.16118728	     -4.60461216	    -10.22684562	      4.46821113
      1.40433333	      1.66050525	      8.29355165	     -2.23025892	      0.40168085	      1.02604245	      0.26460367	     16.33019963	     -7.74369265	      0.89916591	    -59.33728962	      6.58925309	    -16.27778240	     -1.14049674	      0.89211756	     12.39103228	      3.42866805	     -6.95529630	     -0.23538113	    -18.32608044	      6.05302073	     -4.65131488	    -10.12625341	      4.20275621
      1.40850000	      1.65336162	      8.21210069	     -2.08180565	      0.40678217	      1.02638163	      0.26437466	     16.71823299	     -7.64496797	      0.76461616	    -58.48029707	      6.70543334	    -16.31478074	     -1.19801427	      0.38050192	     12.31746620	      3.66340787	     -6.60793387	     -0.17993317	    -18.36622837	      5.94558725	     -4.68883400	    -10.03072291	      3.94586556
      1.41266667	      1.62359721	      8.12057360	     -1.92973292	      0.41187943	      1.02667075	      0.26415850	     17.11143959	     -7.53300362	      0.63505995	    -57.57667357	      6.83042731	    -16.33584283	     -1.22603979	     -0.08549447	     12.22497170	      3.84630539	     -6.30155210	     -0.12763327	    -18.32867775	      5.89654667	     -4.70145547	     -9.93137603	      3.79787058
      1.41683333	      1.65179016	      8.04776390	     -1.79556465	      0.41695670	      1.02698068	      0.26396028	     17.43853100	     -7.44692058	      0.51478230	    -56.64793788	      6.88191268	    -16.42445803	     -1.28922053	     -0.64157228	     12.15730819	      4.11010179	     -5.93495139	     -0.06466307	    -18.41923995	      5.79251332	     -4.78950610	     -9.85841548	      3.44538153
      1.42100000	      1.61194481	      7.97860398	     -1.65604748	      0.42204508	      1.02714282	      0.26378309	     17.82816862	     -7.36294131	      0.39955678	    -55.69265889	      6.98826655	    -16.44057885	     -1.32064005	     -1.09087439	     12.08190745	      4.28209754	     -5.63142509	     -0.01317355	    -18.39334164	      5.74173014	     -4.78517928	     -9.78014006	      3.30231096
      1.42516667	      1.62466772	      7.91103114	     -1.53212208	      0.42712771	      1.02734743	      0.26361758	     18.14816275	     -7.28472989	      0.29031285	    -54.69936890	      7.00393287	    -16.54209322	     -1.38490281	     -1.62274535	     12.01184457	      4.52188649	     -5.27469412	      0.05810221	    -18.47320052	      5.64423565	     -4.84986068	     -9.70873005	      2.98687601
      1.42933333	      1.60794906	      7.85841928	     -1.41035759	      0.43219698	      1.02744184	      0.26346133	     18.49559888	     -7.22402938	      0.19112989	    -53.69031068	      7.05534463	    -16.59029059	     -1.45270566	     -2.10566640	     11.95347796	      4.73317486	     -4.94708920	      0.11221940	    -18.52505238	      5.54096013	     -4.87745783	     -9.65803510	      2.75191422
      1.43350000	      1.58610320	      7.80485416	     -1.29543002	      0.43728102	      1.02750435	      0.26333374	     18.83334425	     -7.16182977	      0.09656732	    -52.64452010	      7.08092164	    -16.64585097	     -1.51401082	     -2.57724641	     11.88899139	      4.91038178	     -4.63045753	      0.18120180	    -18.54277153	      5.45070800	     -4.89186740	     -9.59905087	      2.55662311
      1.43766667	      1.55495259	      7.74298598	     -1.18399795	      0.44236514	      1.02751669	      0.26321166	     19.16319810	     -7.09047414	      0.01004759	    -51.56239240	      7.11342160	    -16.66945240	     -1.55135938	     -3.02615201	     11.81266532	      5.05845977	     -4.33772680	      0.24473499	    -18.51570837	      5.39771013	     -4.89510533	     -9.53450207	      2.41777079
      1.44183333	      1.55747530	      7.70391475	     -1.09319958	      0.44743402	      1.02751310	      0.26312493	     19.45686585	     -7.04332418	     -0.05787628	    -50.46612680	      7.08068684	    -16.75967272	     -1.62023059	     -3.52983982	     11.76207494	      5.25546702	     -4.00389910	      0.32495539	    -18.57664238	      5.29902864	     -4.94664559	     -9.50100957	      2.15418349
      1.44600000	      1.48335982	      7.66206694	     -0.99938951	      0.45253399	      1.02735659	      0.26303720	     19.82188325	     -6.99628304	     -0.12929942	    -49.35076369	      7.09565402	    -16.74097784	     -1.65000234	     -3.92773245	     11.70291208	      5.37738931	     -3.71602336	      0.40413101	    -18.54486355	      5.25720564	     -4.89838364	     -9.45216733	      2.05346547
      1.45016667	      1.45918203	      7.61860406	     -0.91414228	      0.45762709	      1.02724162	      0.26295865	     20.11083565	     -6.94696240	     -0.18927946	    -48.18956463	      7.05302002	    -16.76849239	     -1.68669774	     -4.37856642	     11.64378547	      5.51827581	     -3.43286189	      0.49628898	    -18.54718406	      5.20698657	     -4.89684803	     -9.40495261	      1.89140993
      1.45433333	      1.42259545	      7.58467204	     -0.83940190	      0.46271834	      1.02705549	      0.26291855	     20.41018834	     -6.90821178	     -0.24765555	    -47.01911134	      7.00113644	    -16.78095432	     -1.72306073	     -4.82078717	     11.59172927	      5.65612269	     -3.13514106	      0.58795938	    -18.55672162	      5.15554560	     -4.89888113	     -9.37463971	      1.72626025
      1.45850000	      1.40528901	      7.55972714	     -0.77471168	      0.46779886	      1.02684637	      0.26287851	     20.67552210	     -6.87841029	     -0.28760599	    -45.82070829	      6.93712637	    -16.78675714	     -1.76286411	     -5.27495992	     11.55173284	      5.79487346	     -2.85652807	      0.68562390	    -18.57894678	      5.09644663	     -4.90101978	     -9.34883114	      1.55904357
      1.46266667	      1.35210369	      7.53156530	     -0.71353392	      0.47290785	      1.02655062	      0.26286650	     20.96810457	     -6.84634859	     -0.33533202	    -44.60376791	      6.86489945	    -16.75668060	     -1.79682719	     -5.69087352	     11.50391360	      5.91506877	     -2.57610443	      0.78642844	    -18.58969256	      5.04334077	     -4.88096787	     -9.32509388	      1.42026305
      1.46683333	      1.30296506	      7.52062644	     -0.66247883	      0.47800238	      1.02619548	      0.26285927	     21.25079123	     -6.83079785	     -0.36263918	    -43.37458204	      6.78185234	    -16.71883562	     -1.82993706	     -6.10266972	     11.47698548	      6.03462304	     -2.31248269	      0.89629167	    -18.60215813	      4.98765304	     -4.84830558	     -9.31005553	      1.28397322
      1.47100000	      1.25965499	      7.50659097	     -0.61620248	      0.48309832	      1.02582421	      0.26287122	     21.50950085	     -6.81243195	     -0.39200032	    -42.11373663	      6.67881558	    -16.67457712	     -1.86678379	     -6.52081543	     11.44535836	      6.15921865	     -2.04792831	      1.01005010	    -18.62391713	      4.91821242	     -4.83085485	     -9.29813340	      1.13717694
